<mxfile host="app.diagrams.net" modified="2021-03-04T01:22:04.165Z" agent="5.0 (Windows NT 10.0; Win64; x64) AppleWebKit/537.36 (KHTML, like Gecko) Chrome/88.0.4324.190 Safari/537.36" etag="ygKzxe4m4qMW2KCMJF_W" version="14.4.3" type="github">
  <diagram id="oidKAotuflDEEQi21nP8" name="Page-1">
    <mxGraphModel dx="841" dy="668" grid="0" gridSize="10" guides="1" tooltips="1" connect="1" arrows="1" fold="1" page="1" pageScale="1" pageWidth="827" pageHeight="1169" background="#ffffff" math="0" shadow="0">
      <root>
        <mxCell id="0" />
        <mxCell id="1" parent="0" />
        <mxCell id="biDsljLJ2qvcuqTwJUGm-1" value="- Associação&lt;br&gt;- Agregação&lt;br&gt;- Composição&lt;br&gt;&lt;br&gt;- Herança&lt;br&gt;- Dependência" style="rounded=0;whiteSpace=wrap;html=1;fontSize=22;" parent="1" vertex="1">
          <mxGeometry x="11" y="13" width="802" height="187" as="geometry" />
        </mxCell>
        <mxCell id="biDsljLJ2qvcuqTwJUGm-2" value="" style="rounded=0;whiteSpace=wrap;html=1;fontSize=22;" parent="1" vertex="1">
          <mxGeometry x="11" y="205" width="801" height="281" as="geometry" />
        </mxCell>
        <mxCell id="biDsljLJ2qvcuqTwJUGm-3" value="Associação" style="text;html=1;strokeColor=none;fillColor=none;align=center;verticalAlign=middle;whiteSpace=wrap;rounded=0;fontSize=22;" parent="1" vertex="1">
          <mxGeometry x="58" y="219" width="40" height="20" as="geometry" />
        </mxCell>
        <mxCell id="biDsljLJ2qvcuqTwJUGm-4" value="Carro" style="swimlane;fontStyle=1;align=center;verticalAlign=top;childLayout=stackLayout;horizontal=1;startSize=26;horizontalStack=0;resizeParent=1;resizeParentMax=0;resizeLast=0;collapsible=1;marginBottom=0;fontSize=22;" parent="1" vertex="1">
          <mxGeometry x="91" y="282" width="160" height="34" as="geometry" />
        </mxCell>
        <mxCell id="biDsljLJ2qvcuqTwJUGm-6" value="" style="line;strokeWidth=1;fillColor=none;align=left;verticalAlign=middle;spacingTop=-1;spacingLeft=3;spacingRight=3;rotatable=0;labelPosition=right;points=[];portConstraint=eastwest;" parent="biDsljLJ2qvcuqTwJUGm-4" vertex="1">
          <mxGeometry y="26" width="160" height="8" as="geometry" />
        </mxCell>
        <mxCell id="biDsljLJ2qvcuqTwJUGm-8" value="Pneu" style="swimlane;fontStyle=1;align=center;verticalAlign=top;childLayout=stackLayout;horizontal=1;startSize=26;horizontalStack=0;resizeParent=1;resizeParentMax=0;resizeLast=0;collapsible=1;marginBottom=0;fontSize=22;" parent="1" vertex="1">
          <mxGeometry x="414" y="282" width="160" height="34" as="geometry" />
        </mxCell>
        <mxCell id="biDsljLJ2qvcuqTwJUGm-10" value="" style="line;strokeWidth=1;fillColor=none;align=left;verticalAlign=middle;spacingTop=-1;spacingLeft=3;spacingRight=3;rotatable=0;labelPosition=right;points=[];portConstraint=eastwest;" parent="biDsljLJ2qvcuqTwJUGm-8" vertex="1">
          <mxGeometry y="26" width="160" height="8" as="geometry" />
        </mxCell>
        <mxCell id="biDsljLJ2qvcuqTwJUGm-12" value="" style="endArrow=classic;html=1;edgeStyle=orthogonalEdgeStyle;fontSize=22;endFill=1;" parent="1" edge="1">
          <mxGeometry relative="1" as="geometry">
            <mxPoint x="251" y="302" as="sourcePoint" />
            <mxPoint x="411" y="302" as="targetPoint" />
          </mxGeometry>
        </mxCell>
        <mxCell id="biDsljLJ2qvcuqTwJUGm-15" value="4 .. 5" style="text;html=1;strokeColor=none;fillColor=none;align=center;verticalAlign=middle;whiteSpace=wrap;rounded=0;fontSize=22;" parent="1" vertex="1">
          <mxGeometry x="328" y="282" width="76" height="20" as="geometry" />
        </mxCell>
        <mxCell id="biDsljLJ2qvcuqTwJUGm-16" value="0 .. *" style="text;html=1;strokeColor=none;fillColor=none;align=center;verticalAlign=middle;whiteSpace=wrap;rounded=0;fontSize=22;" parent="1" vertex="1">
          <mxGeometry x="332" y="417" width="76" height="20" as="geometry" />
        </mxCell>
        <mxCell id="biDsljLJ2qvcuqTwJUGm-17" value="1 .. 1" style="text;html=1;strokeColor=none;fillColor=none;align=center;verticalAlign=middle;whiteSpace=wrap;rounded=0;fontSize=22;" parent="1" vertex="1">
          <mxGeometry x="332" y="389" width="76" height="20" as="geometry" />
        </mxCell>
        <mxCell id="biDsljLJ2qvcuqTwJUGm-18" value="0 .. 1" style="text;html=1;strokeColor=none;fillColor=none;align=center;verticalAlign=middle;whiteSpace=wrap;rounded=0;fontSize=22;" parent="1" vertex="1">
          <mxGeometry x="332" y="363" width="76" height="20" as="geometry" />
        </mxCell>
        <mxCell id="biDsljLJ2qvcuqTwJUGm-19" value="1 .. *" style="text;html=1;strokeColor=none;fillColor=none;align=center;verticalAlign=middle;whiteSpace=wrap;rounded=0;fontSize=22;" parent="1" vertex="1">
          <mxGeometry x="332" y="443" width="76" height="20" as="geometry" />
        </mxCell>
        <mxCell id="biDsljLJ2qvcuqTwJUGm-20" value="n .. m" style="text;html=1;strokeColor=none;fillColor=none;align=center;verticalAlign=middle;whiteSpace=wrap;rounded=0;fontSize=22;" parent="1" vertex="1">
          <mxGeometry x="332" y="463" width="76" height="20" as="geometry" />
        </mxCell>
        <mxCell id="biDsljLJ2qvcuqTwJUGm-22" value="Multiplicidade&lt;br&gt;/ Cardinalidade" style="text;html=1;strokeColor=none;fillColor=none;align=center;verticalAlign=middle;whiteSpace=wrap;rounded=0;fontSize=22;" parent="1" vertex="1">
          <mxGeometry x="149" y="396" width="179" height="57" as="geometry" />
        </mxCell>
        <mxCell id="biDsljLJ2qvcuqTwJUGm-23" value="0 .. 1" style="text;html=1;strokeColor=none;fillColor=none;align=center;verticalAlign=middle;whiteSpace=wrap;rounded=0;fontSize=22;" parent="1" vertex="1">
          <mxGeometry x="332" y="363" width="76" height="20" as="geometry" />
        </mxCell>
        <mxCell id="biDsljLJ2qvcuqTwJUGm-24" value="1 .. 1" style="text;html=1;strokeColor=none;fillColor=none;align=center;verticalAlign=middle;whiteSpace=wrap;rounded=0;fontSize=22;" parent="1" vertex="1">
          <mxGeometry x="332" y="389" width="76" height="20" as="geometry" />
        </mxCell>
        <mxCell id="biDsljLJ2qvcuqTwJUGm-25" value="0 .. 1" style="text;html=1;strokeColor=none;fillColor=none;align=center;verticalAlign=middle;whiteSpace=wrap;rounded=0;fontSize=22;" parent="1" vertex="1">
          <mxGeometry x="332" y="363" width="76" height="20" as="geometry" />
        </mxCell>
        <mxCell id="biDsljLJ2qvcuqTwJUGm-26" value="1 .. 1" style="text;html=1;strokeColor=none;fillColor=none;align=center;verticalAlign=middle;whiteSpace=wrap;rounded=0;fontSize=22;" parent="1" vertex="1">
          <mxGeometry x="332" y="389" width="76" height="20" as="geometry" />
        </mxCell>
        <mxCell id="biDsljLJ2qvcuqTwJUGm-27" value="1 .. *" style="text;html=1;strokeColor=none;fillColor=none;align=center;verticalAlign=middle;whiteSpace=wrap;rounded=0;fontSize=22;" parent="1" vertex="1">
          <mxGeometry x="332" y="443" width="76" height="20" as="geometry" />
        </mxCell>
        <mxCell id="biDsljLJ2qvcuqTwJUGm-28" value="" style="rounded=0;whiteSpace=wrap;html=1;fontSize=22;" parent="1" vertex="1">
          <mxGeometry x="9" y="506" width="801" height="197" as="geometry" />
        </mxCell>
        <mxCell id="biDsljLJ2qvcuqTwJUGm-29" value="Agregação" style="text;html=1;strokeColor=none;fillColor=none;align=center;verticalAlign=middle;whiteSpace=wrap;rounded=0;fontSize=22;" parent="1" vertex="1">
          <mxGeometry x="51" y="521" width="40" height="20" as="geometry" />
        </mxCell>
        <mxCell id="biDsljLJ2qvcuqTwJUGm-38" style="edgeStyle=orthogonalEdgeStyle;rounded=0;orthogonalLoop=1;jettySize=auto;html=1;exitX=0;exitY=0.5;exitDx=0;exitDy=0;endArrow=diamondThin;endFill=0;fontSize=22;entryX=1;entryY=0.5;entryDx=0;entryDy=0;endSize=23;" parent="1" source="biDsljLJ2qvcuqTwJUGm-30" target="biDsljLJ2qvcuqTwJUGm-34" edge="1">
          <mxGeometry relative="1" as="geometry" />
        </mxCell>
        <mxCell id="biDsljLJ2qvcuqTwJUGm-30" value="Pessoa" style="swimlane;fontStyle=1;align=center;verticalAlign=top;childLayout=stackLayout;horizontal=1;startSize=26;horizontalStack=0;resizeParent=1;resizeParentMax=0;resizeLast=0;collapsible=1;marginBottom=0;fontSize=22;" parent="1" vertex="1">
          <mxGeometry x="408" y="629.5" width="160" height="34" as="geometry" />
        </mxCell>
        <mxCell id="biDsljLJ2qvcuqTwJUGm-32" value="" style="line;strokeWidth=1;fillColor=none;align=left;verticalAlign=middle;spacingTop=-1;spacingLeft=3;spacingRight=3;rotatable=0;labelPosition=right;points=[];portConstraint=eastwest;" parent="biDsljLJ2qvcuqTwJUGm-30" vertex="1">
          <mxGeometry y="26" width="160" height="8" as="geometry" />
        </mxCell>
        <mxCell id="biDsljLJ2qvcuqTwJUGm-34" value="Time" style="swimlane;fontStyle=1;align=center;verticalAlign=top;childLayout=stackLayout;horizontal=1;startSize=26;horizontalStack=0;resizeParent=1;resizeParentMax=0;resizeLast=0;collapsible=1;marginBottom=0;fontSize=22;" parent="1" vertex="1">
          <mxGeometry x="83" y="629.5" width="160" height="34" as="geometry" />
        </mxCell>
        <mxCell id="biDsljLJ2qvcuqTwJUGm-36" value="" style="line;strokeWidth=1;fillColor=none;align=left;verticalAlign=middle;spacingTop=-1;spacingLeft=3;spacingRight=3;rotatable=0;labelPosition=right;points=[];portConstraint=eastwest;" parent="biDsljLJ2qvcuqTwJUGm-34" vertex="1">
          <mxGeometry y="26" width="160" height="8" as="geometry" />
        </mxCell>
        <mxCell id="biDsljLJ2qvcuqTwJUGm-39" value="1 .. *" style="text;html=1;strokeColor=none;fillColor=none;align=center;verticalAlign=middle;whiteSpace=wrap;rounded=0;fontSize=22;" parent="1" vertex="1">
          <mxGeometry x="332" y="627" width="76" height="20" as="geometry" />
        </mxCell>
        <mxCell id="biDsljLJ2qvcuqTwJUGm-40" value="" style="rounded=0;whiteSpace=wrap;html=1;fontSize=22;" parent="1" vertex="1">
          <mxGeometry x="9" y="723" width="801" height="197" as="geometry" />
        </mxCell>
        <mxCell id="biDsljLJ2qvcuqTwJUGm-41" value="Composição" style="text;html=1;strokeColor=none;fillColor=none;align=center;verticalAlign=middle;whiteSpace=wrap;rounded=0;fontSize=22;" parent="1" vertex="1">
          <mxGeometry x="54" y="736" width="40" height="20" as="geometry" />
        </mxCell>
        <mxCell id="biDsljLJ2qvcuqTwJUGm-42" value="Time" style="swimlane;fontStyle=1;align=center;verticalAlign=top;childLayout=stackLayout;horizontal=1;startSize=26;horizontalStack=0;resizeParent=1;resizeParentMax=0;resizeLast=0;collapsible=1;marginBottom=0;fontSize=22;" parent="1" vertex="1">
          <mxGeometry x="79" y="810" width="160" height="34" as="geometry" />
        </mxCell>
        <mxCell id="biDsljLJ2qvcuqTwJUGm-43" value="" style="line;strokeWidth=1;fillColor=none;align=left;verticalAlign=middle;spacingTop=-1;spacingLeft=3;spacingRight=3;rotatable=0;labelPosition=right;points=[];portConstraint=eastwest;" parent="biDsljLJ2qvcuqTwJUGm-42" vertex="1">
          <mxGeometry y="26" width="160" height="8" as="geometry" />
        </mxCell>
        <mxCell id="biDsljLJ2qvcuqTwJUGm-46" style="edgeStyle=orthogonalEdgeStyle;rounded=0;orthogonalLoop=1;jettySize=auto;html=1;exitX=0;exitY=0.5;exitDx=0;exitDy=0;entryX=1;entryY=0.5;entryDx=0;entryDy=0;endArrow=diamondThin;endFill=1;endSize=23;fontSize=22;" parent="1" source="biDsljLJ2qvcuqTwJUGm-44" target="biDsljLJ2qvcuqTwJUGm-42" edge="1">
          <mxGeometry relative="1" as="geometry" />
        </mxCell>
        <mxCell id="biDsljLJ2qvcuqTwJUGm-44" value="Jogador" style="swimlane;fontStyle=1;align=center;verticalAlign=top;childLayout=stackLayout;horizontal=1;startSize=26;horizontalStack=0;resizeParent=1;resizeParentMax=0;resizeLast=0;collapsible=1;marginBottom=0;fontSize=22;" parent="1" vertex="1">
          <mxGeometry x="398" y="810" width="160" height="34" as="geometry" />
        </mxCell>
        <mxCell id="biDsljLJ2qvcuqTwJUGm-45" value="" style="line;strokeWidth=1;fillColor=none;align=left;verticalAlign=middle;spacingTop=-1;spacingLeft=3;spacingRight=3;rotatable=0;labelPosition=right;points=[];portConstraint=eastwest;" parent="biDsljLJ2qvcuqTwJUGm-44" vertex="1">
          <mxGeometry y="26" width="160" height="8" as="geometry" />
        </mxCell>
        <mxCell id="biDsljLJ2qvcuqTwJUGm-47" value="1 .. *" style="text;html=1;strokeColor=none;fillColor=none;align=center;verticalAlign=middle;whiteSpace=wrap;rounded=0;fontSize=22;" parent="1" vertex="1">
          <mxGeometry x="319" y="806" width="76" height="20" as="geometry" />
        </mxCell>
        <mxCell id="biDsljLJ2qvcuqTwJUGm-48" value="&lt;i&gt;&lt;font style=&quot;font-size: 17px&quot;&gt;pneus&lt;/font&gt;&lt;/i&gt;" style="text;html=1;strokeColor=none;fillColor=none;align=center;verticalAlign=middle;whiteSpace=wrap;rounded=0;fontSize=22;" parent="1" vertex="1">
          <mxGeometry x="251" y="302" width="76" height="20" as="geometry" />
        </mxCell>
        <mxCell id="O-chyJX1uRSNyFMLqIYp-1" value="" style="rounded=0;whiteSpace=wrap;html=1;fontSize=22;" vertex="1" parent="1">
          <mxGeometry x="9" y="938" width="801" height="253" as="geometry" />
        </mxCell>
        <mxCell id="O-chyJX1uRSNyFMLqIYp-2" value="Herança (é um)" style="text;html=1;strokeColor=none;fillColor=none;align=center;verticalAlign=middle;whiteSpace=wrap;rounded=0;fontSize=22;" vertex="1" parent="1">
          <mxGeometry x="19" y="952" width="166" height="20" as="geometry" />
        </mxCell>
        <mxCell id="O-chyJX1uRSNyFMLqIYp-3" value="Animal" style="swimlane;fontStyle=1;align=center;verticalAlign=top;childLayout=stackLayout;horizontal=1;startSize=26;horizontalStack=0;resizeParent=1;resizeParentMax=0;resizeLast=0;collapsible=1;marginBottom=0;" vertex="1" parent="1">
          <mxGeometry x="374" y="957" width="160" height="34" as="geometry" />
        </mxCell>
        <mxCell id="O-chyJX1uRSNyFMLqIYp-5" value="" style="line;strokeWidth=1;fillColor=none;align=left;verticalAlign=middle;spacingTop=-1;spacingLeft=3;spacingRight=3;rotatable=0;labelPosition=right;points=[];portConstraint=eastwest;" vertex="1" parent="O-chyJX1uRSNyFMLqIYp-3">
          <mxGeometry y="26" width="160" height="8" as="geometry" />
        </mxCell>
        <mxCell id="O-chyJX1uRSNyFMLqIYp-9" style="edgeStyle=orthogonalEdgeStyle;rounded=0;orthogonalLoop=1;jettySize=auto;html=1;exitX=0.5;exitY=0;exitDx=0;exitDy=0;entryX=0.25;entryY=1;entryDx=0;entryDy=0;endArrow=block;endFill=0;strokeWidth=1;endSize=15;" edge="1" parent="1" source="O-chyJX1uRSNyFMLqIYp-7" target="O-chyJX1uRSNyFMLqIYp-3">
          <mxGeometry relative="1" as="geometry" />
        </mxCell>
        <mxCell id="O-chyJX1uRSNyFMLqIYp-7" value="Mamífero" style="swimlane;fontStyle=1;align=center;verticalAlign=top;childLayout=stackLayout;horizontal=1;startSize=26;horizontalStack=0;resizeParent=1;resizeParentMax=0;resizeLast=0;collapsible=1;marginBottom=0;" vertex="1" parent="1">
          <mxGeometry x="199" y="1055" width="160" height="34" as="geometry" />
        </mxCell>
        <mxCell id="O-chyJX1uRSNyFMLqIYp-8" value="" style="line;strokeWidth=1;fillColor=none;align=left;verticalAlign=middle;spacingTop=-1;spacingLeft=3;spacingRight=3;rotatable=0;labelPosition=right;points=[];portConstraint=eastwest;" vertex="1" parent="O-chyJX1uRSNyFMLqIYp-7">
          <mxGeometry y="26" width="160" height="8" as="geometry" />
        </mxCell>
        <mxCell id="O-chyJX1uRSNyFMLqIYp-13" style="edgeStyle=orthogonalEdgeStyle;rounded=0;orthogonalLoop=1;jettySize=auto;html=1;exitX=0.5;exitY=0;exitDx=0;exitDy=0;entryX=0.5;entryY=1;entryDx=0;entryDy=0;endArrow=block;endFill=0;endSize=15;strokeWidth=1;" edge="1" parent="1" source="O-chyJX1uRSNyFMLqIYp-10" target="O-chyJX1uRSNyFMLqIYp-7">
          <mxGeometry relative="1" as="geometry" />
        </mxCell>
        <mxCell id="O-chyJX1uRSNyFMLqIYp-10" value="Gato" style="swimlane;fontStyle=1;align=center;verticalAlign=top;childLayout=stackLayout;horizontal=1;startSize=26;horizontalStack=0;resizeParent=1;resizeParentMax=0;resizeLast=0;collapsible=1;marginBottom=0;" vertex="1" parent="1">
          <mxGeometry x="196" y="1133" width="160" height="34" as="geometry" />
        </mxCell>
        <mxCell id="O-chyJX1uRSNyFMLqIYp-11" value="" style="line;strokeWidth=1;fillColor=none;align=left;verticalAlign=middle;spacingTop=-1;spacingLeft=3;spacingRight=3;rotatable=0;labelPosition=right;points=[];portConstraint=eastwest;" vertex="1" parent="O-chyJX1uRSNyFMLqIYp-10">
          <mxGeometry y="26" width="160" height="8" as="geometry" />
        </mxCell>
        <mxCell id="O-chyJX1uRSNyFMLqIYp-18" style="edgeStyle=orthogonalEdgeStyle;rounded=0;orthogonalLoop=1;jettySize=auto;html=1;exitX=0.5;exitY=0;exitDx=0;exitDy=0;endArrow=block;endFill=0;endSize=15;strokeWidth=1;entryX=0.5;entryY=1;entryDx=0;entryDy=0;" edge="1" parent="1" source="O-chyJX1uRSNyFMLqIYp-14" target="O-chyJX1uRSNyFMLqIYp-3">
          <mxGeometry relative="1" as="geometry">
            <mxPoint x="358" y="998" as="targetPoint" />
          </mxGeometry>
        </mxCell>
        <mxCell id="O-chyJX1uRSNyFMLqIYp-14" value="Réptil" style="swimlane;fontStyle=1;align=center;verticalAlign=top;childLayout=stackLayout;horizontal=1;startSize=26;horizontalStack=0;resizeParent=1;resizeParentMax=0;resizeLast=0;collapsible=1;marginBottom=0;" vertex="1" parent="1">
          <mxGeometry x="374" y="1055" width="160" height="34" as="geometry" />
        </mxCell>
        <mxCell id="O-chyJX1uRSNyFMLqIYp-15" value="" style="line;strokeWidth=1;fillColor=none;align=left;verticalAlign=middle;spacingTop=-1;spacingLeft=3;spacingRight=3;rotatable=0;labelPosition=right;points=[];portConstraint=eastwest;" vertex="1" parent="O-chyJX1uRSNyFMLqIYp-14">
          <mxGeometry y="26" width="160" height="8" as="geometry" />
        </mxCell>
        <mxCell id="O-chyJX1uRSNyFMLqIYp-19" style="edgeStyle=orthogonalEdgeStyle;rounded=0;orthogonalLoop=1;jettySize=auto;html=1;exitX=0.25;exitY=0;exitDx=0;exitDy=0;entryX=0.5;entryY=1;entryDx=0;entryDy=0;endArrow=block;endFill=0;endSize=15;strokeWidth=1;" edge="1" parent="1" source="O-chyJX1uRSNyFMLqIYp-16" target="O-chyJX1uRSNyFMLqIYp-14">
          <mxGeometry relative="1" as="geometry" />
        </mxCell>
        <mxCell id="O-chyJX1uRSNyFMLqIYp-22" style="edgeStyle=orthogonalEdgeStyle;rounded=0;orthogonalLoop=1;jettySize=auto;html=1;exitX=0.75;exitY=0;exitDx=0;exitDy=0;entryX=0.5;entryY=1;entryDx=0;entryDy=0;endArrow=block;endFill=0;endSize=15;strokeWidth=1;" edge="1" parent="1" source="O-chyJX1uRSNyFMLqIYp-16" target="O-chyJX1uRSNyFMLqIYp-20">
          <mxGeometry relative="1" as="geometry" />
        </mxCell>
        <mxCell id="O-chyJX1uRSNyFMLqIYp-16" value="Dinossauro" style="swimlane;fontStyle=1;align=center;verticalAlign=top;childLayout=stackLayout;horizontal=1;startSize=26;horizontalStack=0;resizeParent=1;resizeParentMax=0;resizeLast=0;collapsible=1;marginBottom=0;" vertex="1" parent="1">
          <mxGeometry x="449" y="1143" width="160" height="34" as="geometry" />
        </mxCell>
        <mxCell id="O-chyJX1uRSNyFMLqIYp-17" value="" style="line;strokeWidth=1;fillColor=none;align=left;verticalAlign=middle;spacingTop=-1;spacingLeft=3;spacingRight=3;rotatable=0;labelPosition=right;points=[];portConstraint=eastwest;" vertex="1" parent="O-chyJX1uRSNyFMLqIYp-16">
          <mxGeometry y="26" width="160" height="8" as="geometry" />
        </mxCell>
        <mxCell id="O-chyJX1uRSNyFMLqIYp-23" style="edgeStyle=orthogonalEdgeStyle;rounded=0;orthogonalLoop=1;jettySize=auto;html=1;exitX=0.5;exitY=0;exitDx=0;exitDy=0;entryX=0.75;entryY=1;entryDx=0;entryDy=0;endArrow=block;endFill=0;endSize=15;strokeWidth=1;" edge="1" parent="1" source="O-chyJX1uRSNyFMLqIYp-20" target="O-chyJX1uRSNyFMLqIYp-3">
          <mxGeometry relative="1" as="geometry" />
        </mxCell>
        <mxCell id="O-chyJX1uRSNyFMLqIYp-20" value="Aves" style="swimlane;fontStyle=1;align=center;verticalAlign=top;childLayout=stackLayout;horizontal=1;startSize=26;horizontalStack=0;resizeParent=1;resizeParentMax=0;resizeLast=0;collapsible=1;marginBottom=0;" vertex="1" parent="1">
          <mxGeometry x="553" y="1055" width="160" height="34" as="geometry" />
        </mxCell>
        <mxCell id="O-chyJX1uRSNyFMLqIYp-21" value="" style="line;strokeWidth=1;fillColor=none;align=left;verticalAlign=middle;spacingTop=-1;spacingLeft=3;spacingRight=3;rotatable=0;labelPosition=right;points=[];portConstraint=eastwest;" vertex="1" parent="O-chyJX1uRSNyFMLqIYp-20">
          <mxGeometry y="26" width="160" height="8" as="geometry" />
        </mxCell>
      </root>
    </mxGraphModel>
  </diagram>
</mxfile>
